<svg xmlns="http://www.w3.org/2000/svg" width="211.214" height="85.455" viewBox="0 0 211.214 85.455"><g id="&#x421;&#x433;&#x440;&#x443;&#x43F;&#x43F;&#x438;&#x440;&#x43E;&#x432;&#x430;&#x442;&#x44C;_12683" data-name="&#x421;&#x433;&#x440;&#x443;&#x43F;&#x43F;&#x438;&#x440;&#x43E;&#x432;&#x430;&#x442;&#x44C; 12683" transform="translate(-479.405 -101.65)"><g id="&#x421;&#x433;&#x440;&#x443;&#x43F;&#x43F;&#x438;&#x440;&#x43E;&#x432;&#x430;&#x442;&#x44C;_10887" data-name="&#x421;&#x433;&#x440;&#x443;&#x43F;&#x43F;&#x438;&#x440;&#x43E;&#x432;&#x430;&#x442;&#x44C; 10887" transform="translate(524.029 101.65)"><g id="&#x421;&#x433;&#x440;&#x443;&#x43F;&#x43F;&#x438;&#x440;&#x43E;&#x432;&#x430;&#x442;&#x44C;_10884" data-name="&#x421;&#x433;&#x440;&#x443;&#x43F;&#x43F;&#x438;&#x440;&#x43E;&#x432;&#x430;&#x442;&#x44C; 10884" transform="translate(165.014 82.076)"><path id="&#x41A;&#x43E;&#x43D;&#x442;&#x443;&#x440;_26083" data-name="&#x41A;&#x43E;&#x43D;&#x442;&#x443;&#x440; 26083" d="M369.359,567.925a.78.78,0,0,0,.53-.719q.023-.924.013-1.848a.78.78,0,1,0-1.56.017q.01.9-.013,1.791a.781.781,0,0,0,1.029.759Z" transform="translate(-368.329 -564.587)" fill="#6737c2"></path></g><g id="&#x421;&#x433;&#x440;&#x443;&#x43F;&#x43F;&#x438;&#x440;&#x43E;&#x432;&#x430;&#x442;&#x44C;_10885" data-name="&#x421;&#x433;&#x440;&#x443;&#x43F;&#x43F;&#x438;&#x440;&#x43E;&#x432;&#x430;&#x442;&#x44C; 10885" transform="translate(4.005)"><path id="&#x41A;&#x43E;&#x43D;&#x442;&#x443;&#x440;_26084" data-name="&#x41A;&#x43E;&#x43D;&#x442;&#x443;&#x440; 26084" d="M400.905,311.15c1.163-.368,2.355-.716,3.538-1.041a.78.78,0,0,1,.457,1.491.218.218,0,0,0-.043.013c-1.166.319-2.336.663-3.482,1.025a.78.78,0,0,1-.979-.509A.772.772,0,0,1,400.905,311.15Zm-6.941,2.5c.627-.253,1.258-.5,1.9-.742.512-.2,1.032-.388,1.551-.575a.78.78,0,1,1,.529,1.468q-.769.276-1.528.565c-.624.236-1.242.479-1.859.729a.214.214,0,0,1-.043.016.78.78,0,0,1-.545-1.462Zm14.054-4.445c1.193-.279,2.4-.539,3.607-.772a.78.78,0,0,1,.4,1.5c-.033.01-.069.02-.1.026-1.186.23-2.379.486-3.551.759a.779.779,0,0,1-.355-1.518Zm-20.762,7.52c1.088-.555,2.2-1.1,3.321-1.609a.781.781,0,1,1,.651,1.419c-1.1.5-2.194,1.035-3.262,1.58a.965.965,0,0,1-.105.046.781.781,0,0,1-.6-1.436Zm28.009-8.925c1.216-.191,2.447-.355,3.656-.493a.779.779,0,0,1,.342,1.511.675.675,0,0,1-.161.036c-1.192.138-2.4.3-3.6.486a.779.779,0,1,1-.236-1.541Zm-34.421,12.582c1.035-.654,2.1-1.291,3.163-1.9a.779.779,0,1,1,.772,1.354c-1.045.6-2.089,1.222-3.1,1.863a.607.607,0,0,1-.167.079.778.778,0,0,1-.664-1.4ZM422.6,306.952c1.229-.088,2.467-.158,3.683-.2a.78.78,0,0,1,.276,1.518.712.712,0,0,1-.223.039c-1.2.039-2.415.105-3.62.2a.781.781,0,0,1-.115-1.557Zm-47.9,17.714a.916.916,0,0,1,.086-.076c.972-.743,1.977-1.475,2.986-2.175a.78.78,0,0,1,.89,1.281c-.848.588-1.688,1.2-2.51,1.82-.141.1-.279.207-.417.312a.957.957,0,0,1-.227.122.781.781,0,0,1-.808-1.284Zm55.275-17.953c1.232.01,2.474.053,3.689.118a.78.78,0,1,1-.086,1.557c-1.192-.066-2.408-.105-3.62-.118a.779.779,0,1,1,.017-1.557Zm-60.85,22.611c.906-.828,1.843-1.646,2.779-2.427a.78.78,0,0,1,1,1.2c-.92.769-1.84,1.57-2.727,2.385a.757.757,0,0,1-.276.161.78.78,0,0,1-.779-1.314Zm68.218-22.2c1.229.125,2.46.282,3.66.466a.78.78,0,0,1,.131,1.511.768.768,0,0,1-.368.03c-1.173-.177-2.379-.332-3.584-.456a.78.78,0,1,1,.161-1.551Zm6.373,1.728a.774.774,0,0,1,.92-.6c1.212.253,2.421.539,3.6.854a.779.779,0,0,1,.046,1.491.771.771,0,0,1-.45.013c-1.147-.305-2.326-.585-3.509-.831A.779.779,0,0,1,443.71,308.847Zm7.07,1.8a.782.782,0,0,1,.989-.493c1.176.391,2.342.821,3.472,1.281a.781.781,0,0,1,.43,1.015.782.782,0,0,1-1.018.43c-1.1-.447-2.234-.867-3.377-1.248A.779.779,0,0,1,450.78,310.651Zm6.8,2.654a.779.779,0,0,1,1.041-.361c1.114.542,2.217,1.127,3.275,1.738a.779.779,0,0,1-.138,1.413.763.763,0,0,1-.64-.062c-1.028-.591-2.1-1.16-3.177-1.685A.776.776,0,0,1,457.583,313.305Zm6.38,3.558a.777.777,0,0,1,1.084-.207c1.025.7,2.03,1.439,2.989,2.208a.779.779,0,0,1,.125,1.1.8.8,0,0,1-.362.25.78.78,0,0,1-.736-.128c-.93-.746-1.905-1.462-2.894-2.138A.774.774,0,0,1,463.963,316.863Zm5.782,4.468a.775.775,0,0,1,1.1-.036c.9.841,1.777,1.731,2.608,2.641a.78.78,0,0,1-.049,1.1.812.812,0,0,1-.276.161.778.778,0,0,1-.825-.214c-.8-.88-1.656-1.741-2.523-2.556A.776.776,0,0,1,469.745,321.331Zm5.006,5.309a.784.784,0,0,1,1.1.138c.752.966,1.482,1.981,2.165,3.013a.782.782,0,0,1-.22,1.081.852.852,0,0,1-.181.092.783.783,0,0,1-.9-.312c-.664-1-1.366-1.981-2.1-2.917A.78.78,0,0,1,474.751,326.639Zm-13.705,8.7a23.4,23.4,0,0,1,3.433-1.593.765.765,0,0,1,1,.466.78.78,0,0,1-.466,1,21.237,21.237,0,0,0-3.2,1.485.82.82,0,0,1-.138.062.781.781,0,0,1-.634-1.419Zm7.06-2.6c1.212-.256,2.444-.463,3.666-.621a.781.781,0,0,1,.348,1.514.8.8,0,0,1-.151.033c-1.179.151-2.372.351-3.541.6a.781.781,0,0,1-.322-1.528Zm-12.848,7.48a18.306,18.306,0,0,1,2.667-2.727.78.78,0,1,1,1,1.2,16.742,16.742,0,0,0-2.441,2.49.751.751,0,0,1-.361.257.779.779,0,0,1-.864-1.219Zm26.774-7.451a.777.777,0,0,1,.867-.68c1.222.148,2.454.351,3.666.6a.779.779,0,0,1,.089,1.5.793.793,0,0,1-.4.026c-1.169-.243-2.362-.437-3.538-.582A.777.777,0,0,1,482.031,332.766Zm-6.557-.969c1.235-.053,2.487-.056,3.719-.01a.78.78,0,0,1,.749.812.8.8,0,0,1-.059.269c.023.033.043.066.063.1a23.794,23.794,0,0,1,1.537,3.453.78.78,0,0,1-1.472.519,22.084,22.084,0,0,0-1.432-3.223.8.8,0,0,1-.1-.391c-.976-.023-1.961-.013-2.937.033a.781.781,0,0,1-.069-1.56ZM453.28,343.525a.781.781,0,0,1,1.439.608,10.461,10.461,0,0,0-.815,3.289.778.778,0,0,1-.529.68.8.8,0,0,1-.309.036.78.78,0,0,1-.716-.838A12,12,0,0,1,453.28,343.525ZM489.2,334.11a.778.778,0,0,1,.966-.529c1.179.341,2.365.736,3.525,1.169a.781.781,0,0,1-.026,1.472.79.79,0,0,1-.522-.01c-1.124-.424-2.27-.8-3.41-1.133A.782.782,0,0,1,489.2,334.11Zm-7.651,5.332a.783.783,0,0,1,.913.621,24.365,24.365,0,0,1,.407,3.755.772.772,0,0,1-.529.762.747.747,0,0,1-.227.039.778.778,0,0,1-.8-.756,22.481,22.481,0,0,0-.384-3.512A.779.779,0,0,1,481.551,339.441Zm14.53-2.874a.785.785,0,0,1,1.038-.381c1.11.516,2.224,1.081,3.311,1.682a.777.777,0,0,1,.3,1.058.778.778,0,0,1-1.058.306c-1.055-.582-2.135-1.13-3.213-1.63A.78.78,0,0,1,496.081,336.567Zm-42.815,13.66a.779.779,0,0,1,.953.555c.066.246.138.493.223.742a13.056,13.056,0,0,0,1.114,2.418.777.777,0,0,1-.276,1.068.992.992,0,0,1-.148.069.782.782,0,0,1-.92-.345,14.618,14.618,0,0,1-1.248-2.711c-.1-.282-.181-.565-.253-.844A.78.78,0,0,1,453.267,350.227Zm49.27-10.22a.78.78,0,0,1,1.077-.233c1.028.664,2.053,1.376,3.049,2.116a.777.777,0,0,1,.158,1.09.739.739,0,0,1-.374.273.774.774,0,0,1-.716-.112c-.966-.719-1.961-1.409-2.963-2.056A.779.779,0,0,1,502.537,340.007ZM480.29,350.772a18.24,18.24,0,0,0,.706-2.635c.046-.253.089-.506.125-.762a.781.781,0,0,1,.884-.66.783.783,0,0,1,.667.785.507.507,0,0,1-.006.1c-.059.417-.135.828-.22,1.232a19.017,19.017,0,0,1-.686,2.464.785.785,0,0,1-.486.477.754.754,0,0,1-.509,0A.778.778,0,0,1,480.29,350.772Zm-23.718,5.894a.779.779,0,0,1,1.1-.023c.023.02.043.043.066.059a12.7,12.7,0,0,0,2.713,1.958.78.78,0,0,1-.118,1.426.769.769,0,0,1-.617-.053,14.163,14.163,0,0,1-2.648-1.83c-.164-.141-.322-.286-.476-.433A.785.785,0,0,1,456.572,356.665Zm19.98-.135c.279-.256.545-.526.8-.808a13.546,13.546,0,0,0,1.413-1.836.781.781,0,0,1,1.314.844,15.263,15.263,0,0,1-1.262,1.689,14.53,14.53,0,0,1-1.206,1.258.813.813,0,0,1-.279.165.78.78,0,0,1-.782-1.311Zm-13.817,3.932a.78.78,0,0,1,.943-.575,13.271,13.271,0,0,0,1.715.3,14.365,14.365,0,0,0,1.718.092.781.781,0,0,1,.256,1.521.738.738,0,0,1-.243.039,15.644,15.644,0,0,1-2.388-.161q-.72-.1-1.426-.276A.783.783,0,0,1,462.734,360.463Zm7.8-.637a13.145,13.145,0,0,0,1.426-.463,15.509,15.509,0,0,0,1.787-.824.779.779,0,0,1,.742,1.37,17.3,17.3,0,0,1-1.965.91c-.207.079-.417.154-.627.227-.319.109-.641.2-.966.289a.78.78,0,1,1-.4-1.508Zm37.933-15.538a.784.784,0,0,1,1.1-.089c.933.792,1.856,1.626,2.75,2.484a.781.781,0,0,1-1.081,1.127c-.867-.835-1.771-1.649-2.681-2.421A.78.78,0,0,1,508.466,344.287Zm5.342,5a.78.78,0,0,1,1.1.043l.4.443c.693.765,1.373,1.554,2.027,2.352a.781.781,0,0,1-.109,1.1.762.762,0,0,1-.246.138.778.778,0,0,1-.851-.246c-.634-.775-1.294-1.537-1.968-2.28-.131-.151-.269-.3-.4-.447A.778.778,0,0,1,513.808,349.287Zm4.707,5.6a.783.783,0,0,1,1.091.174c.72.992,1.422,2.02,2.086,3.055a.78.78,0,1,1-1.311.844c-.651-1.012-1.334-2.014-2.04-2.983A.782.782,0,0,1,518.515,354.885Zm4.024,6.107a.781.781,0,0,1,1.064.3c.6,1.074,1.183,2.175,1.722,3.279a.777.777,0,0,1-.358,1.041.5.5,0,0,1-.1.039.773.773,0,0,1-.946-.4c-.529-1.075-1.094-2.149-1.682-3.2A.78.78,0,0,1,522.539,360.992Zm3.3,6.528a.776.776,0,0,1,1.022.417c.473,1.137.92,2.3,1.324,3.456a.78.78,0,0,1-1.472.516c-.394-1.127-.828-2.26-1.291-3.371A.775.775,0,0,1,525.835,367.519Zm2.5,6.866a.782.782,0,0,1,.963.539c.039.144.082.286.118.43.293,1.051.552,2.119.779,3.167a.783.783,0,0,1-.512.9.831.831,0,0,1-.085.023.779.779,0,0,1-.927-.6c-.253-1.163-.545-2.339-.874-3.5a.934.934,0,0,1-.029-.227A.784.784,0,0,1,528.334,374.385Zm1.636,7.126a.779.779,0,0,1,.887.657c.181,1.225.325,2.464.42,3.686a.777.777,0,0,1-.526.8.7.7,0,0,1-.187.036.78.78,0,0,1-.841-.713c-.1-1.186-.233-2.392-.411-3.581A.78.78,0,0,1,529.97,381.511Z" transform="translate(-368.867 -306.712)" fill="#6737c2"></path></g><g id="&#x421;&#x433;&#x440;&#x443;&#x43F;&#x43F;&#x438;&#x440;&#x43E;&#x432;&#x430;&#x442;&#x44C;_10886" data-name="&#x421;&#x433;&#x440;&#x443;&#x43F;&#x43F;&#x438;&#x440;&#x43E;&#x432;&#x430;&#x442;&#x44C; 10886" transform="translate(0 25.022)"><path id="&#x41A;&#x43E;&#x43D;&#x442;&#x443;&#x440;_26085" data-name="&#x41A;&#x43E;&#x43D;&#x442;&#x443;&#x440; 26085" d="M883.869,388.148a.776.776,0,0,0,.313-.2q.625-.653,1.261-1.289a.78.78,0,1,0-1.1-1.1q-.647.648-1.284,1.313a.78.78,0,0,0,.813,1.279Z" transform="translate(-882.839 -385.327)" fill="#6737c2"></path></g></g><g id="&#x421;&#x433;&#x440;&#x443;&#x43F;&#x43F;&#x438;&#x440;&#x43E;&#x432;&#x430;&#x442;&#x44C;_12682" data-name="&#x421;&#x433;&#x440;&#x443;&#x43F;&#x43F;&#x438;&#x440;&#x43E;&#x432;&#x430;&#x442;&#x44C; 12682"><path id="&#x41A;&#x43E;&#x43D;&#x442;&#x443;&#x440;_26086" data-name="&#x41A;&#x43E;&#x43D;&#x442;&#x443;&#x440; 26086" d="M928.439,391.048l-1.651,4.85-46.672-8.337Z" transform="translate(-400.711 -260.176)" fill="#6737c2"></path><path id="&#x41A;&#x43E;&#x43D;&#x442;&#x443;&#x440;_26087" data-name="&#x41A;&#x43E;&#x43D;&#x442;&#x443;&#x440; 26087" d="M924.937,343.919l-2.694,7.138-47.264,6.752Z" transform="translate(-395.574 -230.426)" fill="#6737c2"></path><path id="&#x41A;&#x43E;&#x43D;&#x442;&#x443;&#x440;_26088" data-name="&#x41A;&#x43E;&#x43D;&#x442;&#x443;&#x440; 26088" d="M924.937,325.522l-7.909-8.589L874.98,339.412Z" transform="translate(-395.574 -212.027)" fill="#00f2ff"></path><path id="&#x41A;&#x43E;&#x43D;&#x442;&#x443;&#x440;_26089" data-name="&#x41A;&#x43E;&#x43D;&#x442;&#x443;&#x440; 26089" d="M877.787,362.841,889.3,375.87l-66.594-5.161Z" transform="translate(-343.305 -243.324)" fill="#00f2ff"></path></g></g></svg>